# MagicaVoxel @ Ephtracy

# group
g BrownMushroom.png

# material
mtllib BrownMushroom.png.mtl
usemtl palette

# normals
vn -1 0 0
vn 1 0 0
vn 0 0 1
vn 0 0 -1
vn 0 -1 0
vn 0 1 0

# texcoords
vt 0.0292969 0.5
vt 0.0605469 0.5
vt 0.369141 0.5

# verts
v -3 2 0.5
v -3 2 -0.5
v -3 3 0.5
v -3 3 -0.5
v -2 1 0.5
v -2 1 -0.5
v -2 2 0.5
v -2 2 -0.5
v -2 3 0.5
v -2 3 -0.5
v -2 4 0.5
v -2 4 -0.5
v -1 0 0.5
v -1 0 -0.5
v -1 1 0.5
v -1 1 -0.5
v -1 4 0.5
v -1 4 -0.5
v -1 5 0.5
v -1 5 -0.5
v 2 0 0.5
v 2 0 -0.5
v 2 1 0.5
v 2 1 -0.5
v 2 4 0.5
v 2 4 -0.5
v 2 5 0.5
v 2 5 -0.5
v 3 1 0.5
v 3 1 -0.5
v 3 2 0.5
v 3 2 -0.5
v 3 3 0.5
v 3 3 -0.5
v 3 4 0.5
v 3 4 -0.5
v 4 2 0.5
v 4 2 -0.5
v 4 3 0.5
v 4 3 -0.5
v -3 2 0.5
v -3 3 0.5
v -2 1 0.5
v -2 2 0.5
v -2 3 0.5
v -2 4 0.5
v -1 0 0.5
v -1 1 0.5
v -1 2 0.5
v -1 3 0.5
v -1 4 0.5
v -1 5 0.5
v 0 1 0.5
v 0 2 0.5
v 0 4 0.5
v 0 5 0.5
v 1 1 0.5
v 1 2 0.5
v 1 3 0.5
v 1 4 0.5
v 1 5 0.5
v 2 0 0.5
v 2 1 0.5
v 2 2 0.5
v 2 3 0.5
v 2 4 0.5
v 2 5 0.5
v 3 1 0.5
v 3 2 0.5
v 3 3 0.5
v 3 4 0.5
v 4 2 0.5
v 4 3 0.5
v -3 2 -0.5
v -3 3 -0.5
v -2 1 -0.5
v -2 2 -0.5
v -2 3 -0.5
v -2 4 -0.5
v -1 0 -0.5
v -1 1 -0.5
v -1 2 -0.5
v -1 3 -0.5
v -1 4 -0.5
v -1 5 -0.5
v 0 1 -0.5
v 0 2 -0.5
v 0 4 -0.5
v 0 5 -0.5
v 1 1 -0.5
v 1 2 -0.5
v 1 3 -0.5
v 1 4 -0.5
v 1 5 -0.5
v 2 0 -0.5
v 2 1 -0.5
v 2 2 -0.5
v 2 3 -0.5
v 2 4 -0.5
v 2 5 -0.5
v 3 1 -0.5
v 3 2 -0.5
v 3 3 -0.5
v 3 4 -0.5
v 4 2 -0.5
v 4 3 -0.5
v -1 0 0.5
v 2 0 0.5
v -1 0 -0.5
v 2 0 -0.5
v -2 1 0.5
v -1 1 0.5
v 2 1 0.5
v 3 1 0.5
v -2 1 -0.5
v -1 1 -0.5
v 2 1 -0.5
v 3 1 -0.5
v -3 2 0.5
v -2 2 0.5
v 3 2 0.5
v 4 2 0.5
v -3 2 -0.5
v -2 2 -0.5
v 3 2 -0.5
v 4 2 -0.5
v -3 3 0.5
v -2 3 0.5
v 3 3 0.5
v 4 3 0.5
v -3 3 -0.5
v -2 3 -0.5
v 3 3 -0.5
v 4 3 -0.5
v -2 4 0.5
v -1 4 0.5
v 2 4 0.5
v 3 4 0.5
v -2 4 -0.5
v -1 4 -0.5
v 2 4 -0.5
v 3 4 -0.5
v -1 5 0.5
v 0 5 0.5
v 1 5 0.5
v 2 5 0.5
v -1 5 -0.5
v 0 5 -0.5
v 1 5 -0.5
v 2 5 -0.5

# faces
f 3/3/1 2/3/1 1/3/1
f 4/3/1 2/3/1 3/3/1
f 7/3/1 6/3/1 5/3/1
f 8/3/1 6/3/1 7/3/1
f 11/1/1 10/1/1 9/1/1
f 12/1/1 10/1/1 11/1/1
f 15/2/1 14/2/1 13/2/1
f 16/2/1 14/2/1 15/2/1
f 19/3/1 18/3/1 17/3/1
f 20/3/1 18/3/1 19/3/1
f 21/2/2 22/2/2 23/2/2
f 23/2/2 22/2/2 24/2/2
f 25/3/2 26/3/2 27/3/2
f 27/3/2 26/3/2 28/3/2
f 29/3/2 30/3/2 31/3/2
f 31/3/2 30/3/2 32/3/2
f 33/3/2 34/3/2 35/3/2
f 35/3/2 34/3/2 36/3/2
f 37/3/2 38/3/2 39/3/2
f 39/3/2 38/3/2 40/3/2
f 44/3/3 42/3/3 41/3/3
f 45/3/3 42/3/3 44/3/3
f 48/3/3 44/3/3 43/3/3
f 48/3/3 45/3/3 44/3/3
f 49/3/3 45/3/3 48/3/3
f 50/1/3 46/1/3 45/1/3
f 50/3/3 45/3/3 49/3/3
f 51/1/3 46/1/3 50/1/3
f 53/1/3 49/1/3 48/1/3
f 53/2/3 48/2/3 47/2/3
f 54/3/3 52/3/3 51/3/3
f 54/1/3 49/1/3 53/1/3
f 54/3/3 51/3/3 50/3/3
f 54/3/3 50/3/3 49/3/3
f 55/3/3 52/3/3 54/3/3
f 56/3/3 52/3/3 55/3/3
f 57/2/3 53/2/3 47/2/3
f 57/2/3 54/2/3 53/2/3
f 58/3/3 55/3/3 54/3/3
f 58/2/3 54/2/3 57/2/3
f 59/3/3 55/3/3 58/3/3
f 60/1/3 56/1/3 55/1/3
f 60/3/3 55/3/3 59/3/3
f 61/1/3 56/1/3 60/1/3
f 62/2/3 57/2/3 47/2/3
f 63/3/3 58/3/3 57/3/3
f 63/2/3 57/2/3 62/2/3
f 64/1/3 59/1/3 58/1/3
f 64/3/3 58/3/3 63/3/3
f 65/3/3 60/3/3 59/3/3
f 65/1/3 59/1/3 64/1/3
f 65/3/3 61/3/3 60/3/3
f 66/3/3 61/3/3 65/3/3
f 67/3/3 61/3/3 66/3/3
f 68/3/3 64/3/3 63/3/3
f 68/3/3 66/3/3 65/3/3
f 68/3/3 65/3/3 64/3/3
f 69/3/3 66/3/3 68/3/3
f 70/3/3 66/3/3 69/3/3
f 71/3/3 66/3/3 70/3/3
f 72/3/3 70/3/3 69/3/3
f 73/3/3 70/3/3 72/3/3
f 74/3/4 75/3/4 77/3/4
f 77/3/4 75/3/4 78/3/4
f 76/3/4 77/3/4 81/3/4
f 77/3/4 78/3/4 81/3/4
f 81/3/4 78/3/4 82/3/4
f 78/1/4 79/1/4 83/1/4
f 82/3/4 78/3/4 83/3/4
f 83/1/4 79/1/4 84/1/4
f 81/1/4 82/1/4 86/1/4
f 80/2/4 81/2/4 86/2/4
f 84/3/4 85/3/4 87/3/4
f 86/1/4 82/1/4 87/1/4
f 83/3/4 84/3/4 87/3/4
f 82/3/4 83/3/4 87/3/4
f 87/3/4 85/3/4 88/3/4
f 88/3/4 85/3/4 89/3/4
f 80/2/4 86/2/4 90/2/4
f 86/2/4 87/2/4 90/2/4
f 87/3/4 88/3/4 91/3/4
f 90/2/4 87/2/4 91/2/4
f 91/3/4 88/3/4 92/3/4
f 88/1/4 89/1/4 93/1/4
f 92/3/4 88/3/4 93/3/4
f 93/1/4 89/1/4 94/1/4
f 80/2/4 90/2/4 95/2/4
f 90/3/4 91/3/4 96/3/4
f 95/2/4 90/2/4 96/2/4
f 91/1/4 92/1/4 97/1/4
f 96/3/4 91/3/4 97/3/4
f 92/3/4 93/3/4 98/3/4
f 97/1/4 92/1/4 98/1/4
f 93/3/4 94/3/4 98/3/4
f 98/3/4 94/3/4 99/3/4
f 99/3/4 94/3/4 100/3/4
f 96/3/4 97/3/4 101/3/4
f 98/3/4 99/3/4 101/3/4
f 97/3/4 98/3/4 101/3/4
f 101/3/4 99/3/4 102/3/4
f 102/3/4 99/3/4 103/3/4
f 103/3/4 99/3/4 104/3/4
f 102/3/4 103/3/4 105/3/4
f 105/3/4 103/3/4 106/3/4
f 109/2/5 108/2/5 107/2/5
f 110/2/5 108/2/5 109/2/5
f 115/3/5 112/3/5 111/3/5
f 116/3/5 112/3/5 115/3/5
f 117/3/5 114/3/5 113/3/5
f 118/3/5 114/3/5 117/3/5
f 123/3/5 120/3/5 119/3/5
f 124/3/5 120/3/5 123/3/5
f 125/3/5 122/3/5 121/3/5
f 126/3/5 122/3/5 125/3/5
f 127/3/6 128/3/6 131/3/6
f 131/3/6 128/3/6 132/3/6
f 129/3/6 130/3/6 133/3/6
f 133/3/6 130/3/6 134/3/6
f 135/1/6 136/1/6 139/1/6
f 139/1/6 136/1/6 140/1/6
f 137/3/6 138/3/6 141/3/6
f 141/3/6 138/3/6 142/3/6
f 143/3/6 144/3/6 147/3/6
f 144/1/6 145/1/6 148/1/6
f 147/3/6 144/3/6 148/3/6
f 145/3/6 146/3/6 149/3/6
f 148/1/6 145/1/6 149/1/6
f 149/3/6 146/3/6 150/3/6
