# MagicaVoxel @ Ephtracy

# group
g CaveShroom

# material
mtllib CaveShroom.mtl
usemtl palette

# normals
vn -1 0 0
vn 1 0 0
vn 0 0 1
vn 0 0 -1
vn 0 -1 0
vn 0 1 0

# texcoords
vt 0.728516 0.5
vt 0.755859 0.5
vt 0.783203 0.5

# verts
v -4 4 0.5
v -4 4 -0.5
v -4 6 0.5
v -4 6 -0.5
v -3 3 0.5
v -3 3 -0.5
v -3 4 0.5
v -3 4 -0.5
v -3 6 0.5
v -3 6 -0.5
v -3 7 0.5
v -3 7 -0.5
v -2 2 0.5
v -2 2 -0.5
v -2 3 0.5
v -2 3 -0.5
v -2 7 0.5
v -2 7 -0.5
v -2 8 0.5
v -2 8 -0.5
v -1 1 0.5
v -1 1 -0.5
v -1 2 0.5
v -1 2 -0.5
v -1 8 0.5
v -1 8 -0.5
v -1 9 0.5
v -1 9 -0.5
v 0 0 0.5
v 0 0 -0.5
v 0 1 0.5
v 0 1 -0.5
v 1 2 0.5
v 1 2 -0.5
v 1 3 0.5
v 1 3 -0.5
v 1 8 0.5
v 1 8 -0.5
v 1 9 0.5
v 1 9 -0.5
v 2 1 0.5
v 2 1 -0.5
v 2 2 0.5
v 2 2 -0.5
v 2 3 0.5
v 2 3 -0.5
v 2 4 0.5
v 2 4 -0.5
v 2 7 0.5
v 2 7 -0.5
v 2 8 0.5
v 2 8 -0.5
v 3 0 0.5
v 3 0 -0.5
v 3 1 0.5
v 3 1 -0.5
v 3 4 0.5
v 3 4 -0.5
v 3 5 0.5
v 3 5 -0.5
v 3 6 0.5
v 3 6 -0.5
v 3 7 0.5
v 3 7 -0.5
v 4 5 0.5
v 4 5 -0.5
v 4 6 0.5
v 4 6 -0.5
v -4 4 0.5
v -4 6 0.5
v -3 3 0.5
v -3 4 0.5
v -3 6 0.5
v -3 7 0.5
v -2 2 0.5
v -2 3 0.5
v -2 4 0.5
v -2 6 0.5
v -2 7 0.5
v -2 8 0.5
v -1 1 0.5
v -1 2 0.5
v -1 4 0.5
v -1 6 0.5
v -1 7 0.5
v -1 8 0.5
v -1 9 0.5
v 0 0 0.5
v 0 1 0.5
v 1 2 0.5
v 1 3 0.5
v 1 4 0.5
v 1 8 0.5
v 1 9 0.5
v 2 1 0.5
v 2 2 0.5
v 2 3 0.5
v 2 4 0.5
v 2 5 0.5
v 2 6 0.5
v 2 7 0.5
v 2 8 0.5
v 3 0 0.5
v 3 1 0.5
v 3 4 0.5
v 3 5 0.5
v 3 6 0.5
v 3 7 0.5
v 4 5 0.5
v 4 6 0.5
v -4 4 -0.5
v -4 6 -0.5
v -3 3 -0.5
v -3 4 -0.5
v -3 6 -0.5
v -3 7 -0.5
v -2 2 -0.5
v -2 3 -0.5
v -2 4 -0.5
v -2 6 -0.5
v -2 7 -0.5
v -2 8 -0.5
v -1 1 -0.5
v -1 2 -0.5
v -1 4 -0.5
v -1 6 -0.5
v -1 7 -0.5
v -1 8 -0.5
v -1 9 -0.5
v 0 0 -0.5
v 0 1 -0.5
v 1 2 -0.5
v 1 3 -0.5
v 1 4 -0.5
v 1 8 -0.5
v 1 9 -0.5
v 2 1 -0.5
v 2 2 -0.5
v 2 3 -0.5
v 2 4 -0.5
v 2 5 -0.5
v 2 6 -0.5
v 2 7 -0.5
v 2 8 -0.5
v 3 0 -0.5
v 3 1 -0.5
v 3 4 -0.5
v 3 5 -0.5
v 3 6 -0.5
v 3 7 -0.5
v 4 5 -0.5
v 4 6 -0.5
v 0 0 0.5
v 3 0 0.5
v 0 0 -0.5
v 3 0 -0.5
v -1 1 0.5
v 0 1 0.5
v -1 1 -0.5
v 0 1 -0.5
v -2 2 0.5
v -1 2 0.5
v -2 2 -0.5
v -1 2 -0.5
v -3 3 0.5
v -2 3 0.5
v 1 3 0.5
v 2 3 0.5
v -3 3 -0.5
v -2 3 -0.5
v 1 3 -0.5
v 2 3 -0.5
v -4 4 0.5
v -3 4 0.5
v 2 4 0.5
v 3 4 0.5
v -4 4 -0.5
v -3 4 -0.5
v 2 4 -0.5
v 3 4 -0.5
v 3 5 0.5
v 4 5 0.5
v 3 5 -0.5
v 4 5 -0.5
v 2 1 0.5
v 3 1 0.5
v 2 1 -0.5
v 3 1 -0.5
v 1 2 0.5
v 2 2 0.5
v 1 2 -0.5
v 2 2 -0.5
v -4 6 0.5
v -3 6 0.5
v 3 6 0.5
v 4 6 0.5
v -4 6 -0.5
v -3 6 -0.5
v 3 6 -0.5
v 4 6 -0.5
v -3 7 0.5
v -2 7 0.5
v 2 7 0.5
v 3 7 0.5
v -3 7 -0.5
v -2 7 -0.5
v 2 7 -0.5
v 3 7 -0.5
v -2 8 0.5
v -1 8 0.5
v 1 8 0.5
v 2 8 0.5
v -2 8 -0.5
v -1 8 -0.5
v 1 8 -0.5
v 2 8 -0.5
v -1 9 0.5
v 1 9 0.5
v -1 9 -0.5
v 1 9 -0.5

# faces
f 3/3/1 2/3/1 1/3/1
f 4/3/1 2/3/1 3/3/1
f 7/1/1 6/1/1 5/1/1
f 8/1/1 6/1/1 7/1/1
f 11/3/1 10/3/1 9/3/1
f 12/3/1 10/3/1 11/3/1
f 15/3/1 14/3/1 13/3/1
f 16/3/1 14/3/1 15/3/1
f 19/3/1 18/3/1 17/3/1
f 20/3/1 18/3/1 19/3/1
f 23/2/1 22/2/1 21/2/1
f 24/2/1 22/2/1 23/2/1
f 27/3/1 26/3/1 25/3/1
f 28/3/1 26/3/1 27/3/1
f 31/2/1 30/2/1 29/2/1
f 32/2/1 30/2/1 31/2/1
f 33/2/2 34/2/2 35/2/2
f 35/2/2 34/2/2 36/2/2
f 37/3/2 38/3/2 39/3/2
f 39/3/2 38/3/2 40/3/2
f 41/2/2 42/2/2 43/2/2
f 43/2/2 42/2/2 44/2/2
f 45/3/2 46/3/2 47/3/2
f 47/3/2 46/3/2 48/3/2
f 49/3/2 50/3/2 51/3/2
f 51/3/2 50/3/2 52/3/2
f 53/2/2 54/2/2 55/2/2
f 55/2/2 54/2/2 56/2/2
f 57/3/2 58/3/2 59/3/2
f 59/3/2 58/3/2 60/3/2
f 61/3/2 62/3/2 63/3/2
f 63/3/2 62/3/2 64/3/2
f 65/3/2 66/3/2 67/3/2
f 67/3/2 66/3/2 68/3/2
f 72/3/3 70/3/3 69/3/3
f 73/3/3 70/3/3 72/3/3
f 76/1/3 72/1/3 71/1/3
f 77/3/3 74/3/3 73/3/3
f 77/3/3 73/3/3 72/3/3
f 77/1/3 72/1/3 76/1/3
f 78/3/3 74/3/3 77/3/3
f 79/3/3 74/3/3 78/3/3
f 82/3/3 76/3/3 75/3/3
f 82/3/3 77/3/3 76/3/3
f 82/3/3 78/3/3 77/3/3
f 83/3/3 78/3/3 82/3/3
f 84/1/3 79/1/3 78/1/3
f 84/3/3 78/3/3 83/3/3
f 85/3/3 80/3/3 79/3/3
f 85/1/3 79/1/3 84/1/3
f 86/3/3 80/3/3 85/3/3
f 89/2/3 83/2/3 82/2/3
f 89/2/3 82/2/3 81/2/3
f 90/2/3 83/2/3 89/2/3
f 90/2/3 89/2/3 88/2/3
f 91/2/3 83/2/3 90/2/3
f 92/3/3 84/3/3 83/3/3
f 92/2/3 83/2/3 91/2/3
f 92/3/3 87/3/3 86/3/3
f 92/3/3 86/3/3 85/3/3
f 92/3/3 85/3/3 84/3/3
f 93/3/3 87/3/3 92/3/3
f 94/3/3 87/3/3 93/3/3
f 95/2/3 90/2/3 88/2/3
f 96/2/3 90/2/3 95/2/3
f 97/3/3 93/3/3 92/3/3
f 97/3/3 92/3/3 91/3/3
f 98/3/3 93/3/3 97/3/3
f 99/3/3 93/3/3 98/3/3
f 100/3/3 93/3/3 99/3/3
f 101/3/3 93/3/3 100/3/3
f 102/3/3 93/3/3 101/3/3
f 103/2/3 95/2/3 88/2/3
f 104/2/3 95/2/3 103/2/3
f 105/3/3 99/3/3 98/3/3
f 106/1/3 100/1/3 99/1/3
f 106/3/3 99/3/3 105/3/3
f 107/3/3 101/3/3 100/3/3
f 107/1/3 100/1/3 106/1/3
f 108/3/3 101/3/3 107/3/3
f 109/3/3 107/3/3 106/3/3
f 110/3/3 107/3/3 109/3/3
f 111/3/4 112/3/4 114/3/4
f 114/3/4 112/3/4 115/3/4
f 113/1/4 114/1/4 118/1/4
f 115/3/4 116/3/4 119/3/4
f 114/3/4 115/3/4 119/3/4
f 118/1/4 114/1/4 119/1/4
f 119/3/4 116/3/4 120/3/4
f 120/3/4 116/3/4 121/3/4
f 117/3/4 118/3/4 124/3/4
f 118/3/4 119/3/4 124/3/4
f 119/3/4 120/3/4 124/3/4
f 124/3/4 120/3/4 125/3/4
f 120/1/4 121/1/4 126/1/4
f 125/3/4 120/3/4 126/3/4
f 121/3/4 122/3/4 127/3/4
f 126/1/4 121/1/4 127/1/4
f 127/3/4 122/3/4 128/3/4
f 124/2/4 125/2/4 131/2/4
f 123/2/4 124/2/4 131/2/4
f 131/2/4 125/2/4 132/2/4
f 130/2/4 131/2/4 132/2/4
f 132/2/4 125/2/4 133/2/4
f 125/3/4 126/3/4 134/3/4
f 133/2/4 125/2/4 134/2/4
f 128/3/4 129/3/4 134/3/4
f 127/3/4 128/3/4 134/3/4
f 126/3/4 127/3/4 134/3/4
f 134/3/4 129/3/4 135/3/4
f 135/3/4 129/3/4 136/3/4
f 130/2/4 132/2/4 137/2/4
f 137/2/4 132/2/4 138/2/4
f 134/3/4 135/3/4 139/3/4
f 133/3/4 134/3/4 139/3/4
f 139/3/4 135/3/4 140/3/4
f 140/3/4 135/3/4 141/3/4
f 141/3/4 135/3/4 142/3/4
f 142/3/4 135/3/4 143/3/4
f 143/3/4 135/3/4 144/3/4
f 130/2/4 137/2/4 145/2/4
f 145/2/4 137/2/4 146/2/4
f 140/3/4 141/3/4 147/3/4
f 141/1/4 142/1/4 148/1/4
f 147/3/4 141/3/4 148/3/4
f 142/3/4 143/3/4 149/3/4
f 148/1/4 142/1/4 149/1/4
f 149/3/4 143/3/4 150/3/4
f 148/3/4 149/3/4 151/3/4
f 151/3/4 149/3/4 152/3/4
f 155/2/5 154/2/5 153/2/5
f 156/2/5 154/2/5 155/2/5
f 159/2/5 158/2/5 157/2/5
f 160/2/5 158/2/5 159/2/5
f 163/3/5 162/3/5 161/3/5
f 164/3/5 162/3/5 163/3/5
f 169/1/5 166/1/5 165/1/5
f 170/1/5 166/1/5 169/1/5
f 171/3/5 168/3/5 167/3/5
f 172/3/5 168/3/5 171/3/5
f 177/3/5 174/3/5 173/3/5
f 178/3/5 174/3/5 177/3/5
f 179/3/5 176/3/5 175/3/5
f 180/3/5 176/3/5 179/3/5
f 183/3/5 182/3/5 181/3/5
f 184/3/5 182/3/5 183/3/5
f 185/2/6 186/2/6 187/2/6
f 187/2/6 186/2/6 188/2/6
f 189/2/6 190/2/6 191/2/6
f 191/2/6 190/2/6 192/2/6
f 193/3/6 194/3/6 197/3/6
f 197/3/6 194/3/6 198/3/6
f 195/3/6 196/3/6 199/3/6
f 199/3/6 196/3/6 200/3/6
f 201/3/6 202/3/6 205/3/6
f 205/3/6 202/3/6 206/3/6
f 203/3/6 204/3/6 207/3/6
f 207/3/6 204/3/6 208/3/6
f 209/3/6 210/3/6 213/3/6
f 213/3/6 210/3/6 214/3/6
f 211/3/6 212/3/6 215/3/6
f 215/3/6 212/3/6 216/3/6
f 217/3/6 218/3/6 219/3/6
f 219/3/6 218/3/6 220/3/6
