# MagicaVoxel @ Ephtracy

# group
g Mushroom

# material
mtllib Mushroom.mtl
usemtl palette

# normals
vn -1 0 0
vn 1 0 0
vn 0 0 1
vn 0 0 -1
vn 0 -1 0
vn 0 1 0

# texcoords
vt 0.0332031 0.5
vt 0.853516 0.5
vt 0.958984 0.5

# verts
v -3 2 0.5
v -3 2 -0.5
v -3 5 0.5
v -3 5 -0.5
v -2 5 0.5
v -2 5 -0.5
v -2 6 0.5
v -2 6 -0.5
v -1 0 0.5
v -1 0 -0.5
v -1 2 0.5
v -1 2 -0.5
v 1 0 0.5
v 1 0 -0.5
v 1 2 0.5
v 1 2 -0.5
v 2 5 0.5
v 2 5 -0.5
v 2 6 0.5
v 2 6 -0.5
v 3 2 0.5
v 3 2 -0.5
v 3 5 0.5
v 3 5 -0.5
v -3 2 0.5
v -3 5 0.5
v -2 3 0.5
v -2 4 0.5
v -2 5 0.5
v -2 6 0.5
v -1 0 0.5
v -1 2 0.5
v -1 3 0.5
v -1 4 0.5
v -1 5 0.5
v -1 6 0.5
v 0 2 0.5
v 0 3 0.5
v 0 5 0.5
v 0 6 0.5
v 1 0 0.5
v 1 2 0.5
v 1 3 0.5
v 1 4 0.5
v 1 5 0.5
v 2 4 0.5
v 2 5 0.5
v 2 6 0.5
v 3 2 0.5
v 3 5 0.5
v -3 2 -0.5
v -3 5 -0.5
v -2 3 -0.5
v -2 4 -0.5
v -2 5 -0.5
v -2 6 -0.5
v -1 0 -0.5
v -1 2 -0.5
v -1 3 -0.5
v -1 4 -0.5
v -1 5 -0.5
v -1 6 -0.5
v 0 2 -0.5
v 0 3 -0.5
v 0 5 -0.5
v 0 6 -0.5
v 1 0 -0.5
v 1 2 -0.5
v 1 3 -0.5
v 1 4 -0.5
v 1 5 -0.5
v 2 4 -0.5
v 2 5 -0.5
v 2 6 -0.5
v 3 2 -0.5
v 3 5 -0.5
v -1 0 0.5
v 1 0 0.5
v -1 0 -0.5
v 1 0 -0.5
v -3 2 0.5
v -1 2 0.5
v 1 2 0.5
v 3 2 0.5
v -3 2 -0.5
v -1 2 -0.5
v 1 2 -0.5
v 3 2 -0.5
v -3 5 0.5
v -2 5 0.5
v 2 5 0.5
v 3 5 0.5
v -3 5 -0.5
v -2 5 -0.5
v 2 5 -0.5
v 3 5 -0.5
v -2 6 0.5
v -1 6 0.5
v 0 6 0.5
v 2 6 0.5
v -2 6 -0.5
v -1 6 -0.5
v 0 6 -0.5
v 2 6 -0.5

# faces
f 3/2/1 2/2/1 1/2/1
f 4/2/1 2/2/1 3/2/1
f 7/2/1 6/2/1 5/2/1
f 8/2/1 6/2/1 7/2/1
f 11/1/1 10/1/1 9/1/1
f 12/1/1 10/1/1 11/1/1
f 13/1/2 14/1/2 15/1/2
f 15/1/2 14/1/2 16/1/2
f 17/2/2 18/2/2 19/2/2
f 19/2/2 18/2/2 20/2/2
f 21/2/2 22/2/2 23/2/2
f 23/2/2 22/2/2 24/2/2
f 27/2/3 26/2/3 25/2/3
f 28/2/3 26/2/3 27/2/3
f 29/2/3 26/2/3 28/2/3
f 32/2/3 27/2/3 25/2/3
f 33/3/3 28/3/3 27/3/3
f 33/2/3 27/2/3 32/2/3
f 34/2/3 30/2/3 29/2/3
f 34/3/3 28/3/3 33/3/3
f 34/2/3 29/2/3 28/2/3
f 35/2/3 30/2/3 34/2/3
f 36/2/3 30/2/3 35/2/3
f 37/2/3 33/2/3 32/2/3
f 37/1/3 32/1/3 31/1/3
f 37/2/3 34/2/3 33/2/3
f 37/2/3 35/2/3 34/2/3
f 38/2/3 35/2/3 37/2/3
f 39/3/3 36/3/3 35/3/3
f 39/2/3 35/2/3 38/2/3
f 40/3/3 36/3/3 39/3/3
f 41/1/3 37/1/3 31/1/3
f 42/3/3 38/3/3 37/3/3
f 42/1/3 37/1/3 41/1/3
f 43/2/3 39/2/3 38/2/3
f 43/3/3 38/3/3 42/3/3
f 43/2/3 40/2/3 39/2/3
f 44/2/3 40/2/3 43/2/3
f 45/2/3 40/2/3 44/2/3
f 46/2/3 43/2/3 42/2/3
f 46/3/3 45/3/3 44/3/3
f 46/2/3 44/2/3 43/2/3
f 47/2/3 40/2/3 45/2/3
f 47/3/3 45/3/3 46/3/3
f 48/2/3 40/2/3 47/2/3
f 49/2/3 46/2/3 42/2/3
f 49/2/3 47/2/3 46/2/3
f 50/2/3 47/2/3 49/2/3
f 51/2/4 52/2/4 53/2/4
f 53/2/4 52/2/4 54/2/4
f 54/2/4 52/2/4 55/2/4
f 51/2/4 53/2/4 58/2/4
f 53/3/4 54/3/4 59/3/4
f 58/2/4 53/2/4 59/2/4
f 55/2/4 56/2/4 60/2/4
f 59/3/4 54/3/4 60/3/4
f 54/2/4 55/2/4 60/2/4
f 60/2/4 56/2/4 61/2/4
f 61/2/4 56/2/4 62/2/4
f 58/2/4 59/2/4 63/2/4
f 57/1/4 58/1/4 63/1/4
f 59/2/4 60/2/4 63/2/4
f 60/2/4 61/2/4 63/2/4
f 63/2/4 61/2/4 64/2/4
f 61/3/4 62/3/4 65/3/4
f 64/2/4 61/2/4 65/2/4
f 65/3/4 62/3/4 66/3/4
f 57/1/4 63/1/4 67/1/4
f 63/3/4 64/3/4 68/3/4
f 67/1/4 63/1/4 68/1/4
f 64/2/4 65/2/4 69/2/4
f 68/3/4 64/3/4 69/3/4
f 65/2/4 66/2/4 69/2/4
f 69/2/4 66/2/4 70/2/4
f 70/2/4 66/2/4 71/2/4
f 68/2/4 69/2/4 72/2/4
f 70/3/4 71/3/4 72/3/4
f 69/2/4 70/2/4 72/2/4
f 71/2/4 66/2/4 73/2/4
f 72/3/4 71/3/4 73/3/4
f 73/2/4 66/2/4 74/2/4
f 68/2/4 72/2/4 75/2/4
f 72/2/4 73/2/4 75/2/4
f 75/2/4 73/2/4 76/2/4
f 79/1/5 78/1/5 77/1/5
f 80/1/5 78/1/5 79/1/5
f 85/2/5 82/2/5 81/2/5
f 86/2/5 82/2/5 85/2/5
f 87/2/5 84/2/5 83/2/5
f 88/2/5 84/2/5 87/2/5
f 89/2/6 90/2/6 93/2/6
f 93/2/6 90/2/6 94/2/6
f 91/2/6 92/2/6 95/2/6
f 95/2/6 92/2/6 96/2/6
f 97/2/6 98/2/6 101/2/6
f 98/3/6 99/3/6 102/3/6
f 101/2/6 98/2/6 102/2/6
f 99/2/6 100/2/6 103/2/6
f 102/3/6 99/3/6 103/3/6
f 103/2/6 100/2/6 104/2/6
